<svg width="22" height="22" viewBox="0 0 22 22" fill="none" xmlns="http://www.w3.org/2000/svg">
    <rect x="0.576176" y="0.685551" width="11.4188" height="13.933" rx="2.49676" fill="white" stroke="#374F60" stroke-width="1.15235"></rect>
    <path d="M10.4541 12.2462H9.37577L8.26068 9.39721H4.67033L3.56749 12.2462H2.51367L6.055 3.25195H6.93115L10.4541 12.2462ZM7.93595 8.45979L6.89438 5.68432C6.75551 5.32488 6.61663 4.89395 6.47776 4.39155C6.3879 4.7755 6.25923 5.20643 6.09176 5.68432L5.03794 8.45979H7.93595Z" fill="#374F60"></path>
    <rect x="9.42969" y="6.22461" width="12.5711" height="15.0853" rx="3.07294" fill="#374F60"></rect>
    <path d="M18.7157 9.99609V12.446C18.7157 12.7656 18.7006 13.0424 18.6705 13.2763C18.6403 13.5063 18.5779 13.7499 18.4831 14.0072C18.2893 14.5295 17.8781 14.9018 17.2493 15.1239L18.8578 17.5388H17.6498L15.6149 14.3872L14.633 13.0541C14.4607 13.1126 14.3358 13.171 14.2583 13.2295C13.8492 13.5296 13.6446 14.0325 13.6446 14.738V17.5388H12.5723V15.0889C12.5723 14.2352 12.7122 13.6018 12.9922 13.1886C13.1041 13.021 13.2592 12.865 13.4573 12.7208C13.6597 12.5727 13.9009 12.4557 14.1808 12.37L12.5787 9.99609H13.7932L15.7054 12.9138L16.7842 14.4281C17.0038 14.3112 17.1653 14.1904 17.2687 14.0656C17.3763 13.9409 17.4646 13.7713 17.5335 13.5569C17.6067 13.3425 17.6433 13.0892 17.6433 12.7968V9.99609H18.7157Z" fill="white"></path>
</svg>