<svg xmlns:dc="http://purl.org/dc/elements/1.1/" xmlns:cc="http://creativecommons.org/ns#" xmlns:rdf="http://www.w3.org/1999/02/22-rdf-syntax-ns#" xmlns:svg="http://www.w3.org/2000/svg" xmlns="http://www.w3.org/2000/svg" xmlns:sodipodi="http://sodipodi.sourceforge.net/DTD/sodipodi-0.dtd" xmlns:inkscape="http://www.inkscape.org/namespaces/inkscape" viewBox="0 0 12.7 15.875" version="1.1" x="0px" y="0px"><g transform="translate(0,-284.29998)"><path style="" d="m 6.2711185,287.94985 a 2.7010013,2.7010013 0 0 0 -2.6217742,2.69988 2.7010013,2.7010013 0 1 0 5.4018538,0 2.7010013,2.7010013 0 0 0 -2.7800796,-2.69988 z m 0.078799,0.25789 v 4.88468 a 2.4423408,2.4423408 0 0 1 0,-4.88468 z" fill="#000000" stroke="none"/><path style="" d="m 10.283037,286.53405 -1.3483603,1.34832 a 0.12953382,0.12953382 0 0 0 0.1834294,0.18294 l 1.3476909,-1.34832 a 0.12935123,0.12935123 0 0 0 -0.18276,-0.18294 z" fill="#000000" stroke="none"/><path style="" d="m 12.041471,290.52064 h -1.906944 a 0.12935122,0.12935122 0 0 0 0,0.25869 h 1.906944 a 0.12935122,0.12935122 0 0 0 0,-0.25869 z" fill="#000000" stroke="none"/><path style="" d="m 10.465797,294.58299 -1.3476909,-1.34833 a 0.12953141,0.12953141 0 0 0 -0.1834294,0.18293 l 1.3483603,1.34832 a 0.12935123,0.12935123 0 0 0 0.18276,-0.18292 z" fill="#000000" stroke="none"/><path style="" d="m 6.479452,296.34144 v -1.90681 a 0.12937727,0.12937727 0 0 0 -0.2587545,0 v 1.90681 a 0.12937727,0.12937727 0 0 0 0.2587545,0 z" fill="#000000" stroke="none"/><path style="" d="m 2.416979,294.76591 1.3484938,-1.34832 a 0.12935122,0.12935122 0 0 0 -0.1827605,-0.18293 l -1.3484938,1.34833 a 0.12935122,0.12935122 0 0 0 0.1827605,0.18292 z" fill="#000000" stroke="none"/><path style="" d="m 0.6585452,290.77933 h 1.9069434 a 0.12935122,0.12935122 0 0 0 0,-0.25869 H 0.6585452 a 0.12935122,0.12935122 0 0 0 0,0.25869 z" fill="#000000" stroke="none"/><path style="" d="m 2.2342185,286.71699 1.3484938,1.34832 a 0.12935122,0.12935122 0 0 0 0.1827605,-0.18294 L 2.416979,286.53405 a 0.12935122,0.12935122 0 0 0 -0.1827605,0.18294 z" fill="#000000" stroke="none"/><path style="" d="m 6.2206975,284.95853 v 1.90682 a 0.12937727,0.12937727 0 0 0 0.2587545,0 v -1.90682 a 0.12937727,0.12937727 0 0 0 -0.2587545,0 z" fill="#000000" stroke="none"/></g><text x="0" y="27.7" fill="#000000" font-size="5px" font-weight="bold" font-family="'Helvetica Neue', Helvetica, Arial-Unicode, Arial, Sans-serif">Created by Phạm Thanh Lộc</text><text x="0" y="32.7" fill="#000000" font-size="5px" font-weight="bold" font-family="'Helvetica Neue', Helvetica, Arial-Unicode, Arial, Sans-serif">from the Noun Project</text></svg>